<?xml version="1.0" standalone="no"?>
<!DOCTYPE svg PUBLIC "-//W3C//DTD SVG 20010904//EN"
 "http://www.w3.org/TR/2001/REC-SVG-20010904/DTD/svg10.dtd">
<svg version="1.0" xmlns="http://www.w3.org/2000/svg"
 width="5872.000000pt" height="1968.000000pt" viewBox="0 0 5872.000000 1968.000000"
 preserveAspectRatio="xMidYMid meet">

<g transform="translate(0.000000,1968.000000) scale(0.100000,-0.100000)"
fill="#000000" stroke="none">
<path d="M8955 14415 l-2260 -2275 -23 -72 c-50 -162 -67 -273 -67 -448 0
-193 13 -256 80 -395 124 -257 401 -443 805 -539 l95 -22 2610 7 c1436 4 3139
8 3785 10 l1175 2 125 -26 c406 -85 774 -292 1125 -631 l99 -96 506 0 505 0
123 123 123 124 -838 832 -838 833 -3068 -7 -3068 -6 -70 -54 c-85 -66 -178
-111 -283 -137 -65 -17 -101 -19 -200 -16 -209 9 -347 69 -496 218 -97 97
-139 163 -183 287 -29 82 -31 97 -32 228 0 119 3 151 23 215 102 322 383 533
712 533 174 0 317 -48 453 -151 l68 -52 883 0 c485 0 1626 3 2535 7 l1652 6
-1548 1540 c-851 848 -1705 1697 -1898 1889 l-350 347 -2260 -2274z"/>
<path d="M19970 14857 c191 -184 508 -310 1090 -432 395 -83 500 -147 500
-304 0 -99 -63 -164 -193 -197 -105 -27 -332 -25 -442 5 -200 53 -332 166
-398 339 l-22 58 -495 -89 c-272 -49 -497 -90 -499 -92 -9 -9 67 -209 118
-309 74 -146 136 -231 246 -341 279 -279 679 -415 1219 -415 349 0 653 63 899
186 397 199 622 506 656 897 16 179 -7 351 -65 499 -25 63 -98 188 -141 238
l-25 30 -1261 0 -1262 -1 75 -72z"/>
<path d="M23465 14883 c7 -27 59 -221 115 -433 229 -869 332 -1257 341 -1288
l11 -32 470 2 471 3 33 140 c19 77 56 235 84 350 250 1056 301 1272 306 1288
5 16 -17 17 -358 17 l-363 0 -34 -150 c-19 -82 -37 -150 -41 -150 -3 0 -19 53
-34 118 -16 64 -33 132 -38 150 l-9 32 -484 0 -484 0 14 -47z"/>
<path d="M25380 14918 c0 -7 101 -411 223 -898 l223 -885 454 0 453 0 37 140
c21 77 115 435 210 795 95 360 185 701 200 758 l27 102 -391 0 -392 0 -34
-145 c-18 -80 -37 -148 -41 -150 -7 -5 -31 78 -66 223 l-17 72 -443 0 c-348 0
-443 -3 -443 -12z"/>
<path d="M28366 14913 c-3 -10 -61 -198 -130 -418 -68 -220 -191 -614 -271
-875 -81 -261 -149 -478 -152 -482 -2 -5 193 -8 435 -8 l439 0 82 273 c46 149
94 307 108 350 l24 77 469 0 469 0 16 -52 c8 -29 53 -185 99 -346 46 -161 86
-295 88 -298 3 -2 250 -3 549 -2 l545 3 -207 660 c-114 363 -240 764 -279 890
-40 127 -76 233 -79 238 -4 4 -232 6 -508 5 l-500 -3 43 -155 c24 -85 43 -161
44 -167 0 -10 -64 -13 -286 -13 -267 0 -285 1 -280 18 19 62 86 310 86 315 0
4 -180 7 -399 7 -372 0 -400 -1 -405 -17z"/>
<path d="M31792 14889 c18 -23 60 -61 92 -86 214 -160 511 -269 1055 -383 314
-67 410 -110 458 -208 50 -102 16 -205 -85 -256 -82 -41 -146 -51 -307 -50
-171 1 -263 20 -367 76 -114 61 -215 175 -256 290 -12 34 -22 48 -35 48 -26 0
-971 -171 -977 -176 -9 -10 62 -199 111 -298 73 -146 133 -230 244 -342 210
-212 465 -335 820 -395 174 -30 504 -37 691 -15 568 66 994 325 1178 717 74
158 91 242 91 459 -1 161 -4 196 -23 270 -29 105 -95 245 -157 328 l-47 62
-1259 0 -1260 0 33 -41z"/>
<path d="M35322 14597 c-331 -1064 -452 -1457 -452 -1462 0 -3 196 -5 435 -5
l434 0 40 128 c22 70 68 219 102 332 34 113 66 213 71 223 8 16 39 17 476 15
l467 -3 100 -347 99 -348 549 0 c518 0 548 1 543 18 -35 113 -432 1375 -487
1550 l-73 232 -503 0 c-323 0 -503 -4 -503 -10 0 -8 67 -252 86 -312 5 -17
-13 -18 -284 -18 l-289 0 47 170 47 170 -401 0 -401 0 -103 -333z"/>
<path d="M38673 14473 c4 -487 6 -501 59 -663 123 -378 469 -619 1014 -705
138 -22 471 -31 619 -16 313 32 589 130 794 282 193 143 311 353 363 638 18
101 21 170 25 519 l5 402 -426 0 -426 0 0 -307 c0 -170 -5 -341 -10 -381 -27
-210 -206 -336 -480 -337 -235 0 -356 73 -422 256 -22 61 -23 79 -26 417 l-3
352 -545 0 -545 0 4 -457z"/>
<path d="M5110 10548 l-405 -410 834 -829 834 -829 561 1 c309 0 1713 4 3122
8 l2560 8 70 53 c138 107 277 154 454 154 140 0 209 -16 340 -81 80 -39 109
-60 185 -137 104 -104 161 -202 196 -333 29 -107 29 -269 0 -376 -58 -219
-232 -418 -437 -501 -246 -100 -520 -62 -738 103 l-66 50 -2585 -6 c-1422 -4
-2584 -10 -2583 -14 2 -4 728 -727 1613 -1607 l1610 -1601 571 0 572 -1 2049
2058 c1127 1131 2075 2085 2107 2119 l58 61 -11 127 c-59 685 -390 1043 -1031
1114 -72 8 -4947 -14 -7090 -32 -278 -2 -539 0 -580 5 -541 66 -1146 493
-1724 1218 -38 47 -71 85 -75 86 -3 0 -188 -183 -411 -408z"/>
<path d="M20220 8325 l0 -895 510 0 510 0 0 895 0 895 -510 0 -510 0 0 -895z"/>
<path d="M22540 8325 l0 -895 1320 0 1320 0 0 415 0 415 -795 0 -795 0 0 290
0 290 640 0 640 0 0 190 0 190 -1165 0 -1165 0 0 -895z"/>
<path d="M25720 9092 c0 -155 21 -346 56 -501 144 -643 594 -1086 1210 -1191
547 -94 1060 48 1400 386 189 188 313 433 373 739 11 55 21 118 23 140 l3 40
-450 27 c-248 15 -468 27 -490 25 l-39 -2 -13 -83 c-15 -98 -53 -217 -90 -280
-38 -65 -114 -136 -177 -166 -171 -81 -378 -47 -506 84 -131 133 -185 329
-197 718 l-6 192 -549 0 -548 0 0 -128z"/>
<path d="M29450 8325 l0 -895 541 0 541 0 -8 680 -7 680 417 0 416 0 0 -680 0
-680 542 0 541 0 -6 458 c-4 251 -7 654 -7 895 l0 437 -1485 0 -1485 0 0 -895z"/>
<path d="M33300 8325 l0 -895 442 0 441 0 -6 458 c-4 251 -7 654 -7 895 l0
437 -435 0 -435 0 0 -895z"/>
<path d="M34346 9188 c42 -82 196 -334 992 -1620 l85 -138 438 0 439 0 0 895
0 895 -413 0 -414 0 17 -112 c10 -62 16 -115 14 -116 -1 -2 -27 48 -58 112
l-55 116 -531 0 -531 0 17 -32z"/>
<path d="M37030 9101 c0 -201 39 -441 102 -631 79 -240 199 -440 372 -619 236
-243 514 -389 865 -453 166 -30 486 -30 652 0 654 119 1141 605 1288 1285 28
129 51 329 51 444 l0 93 -574 0 -574 0 -7 -142 c-19 -413 -75 -646 -184 -770
-82 -93 -188 -138 -322 -138 -300 0 -467 244 -508 743 -6 70 -11 168 -11 218
l0 89 -575 0 -575 0 0 -119z"/>
<path d="M41090 8325 l0 -895 1230 0 1230 0 0 425 0 425 -692 2 -693 3 -3 468
-2 467 -535 0 -535 0 0 -895z"/>
<path d="M43993 9058 c20 -518 176 -908 492 -1223 183 -184 362 -294 605 -376
190 -63 319 -82 565 -82 172 0 231 4 329 22 141 25 322 84 433 139 286 144
555 416 702 711 123 245 201 582 201 868 l0 103 -573 0 -573 0 -12 -202 c-24
-424 -87 -632 -226 -755 -77 -68 -139 -87 -276 -88 -108 0 -119 2 -181 31
-154 73 -254 242 -303 514 -17 94 -36 316 -36 428 l0 72 -576 0 -577 0 6 -162z"/>
<path d="M47893 9063 c19 -447 107 -756 298 -1044 124 -186 356 -392 554 -491
239 -120 551 -176 839 -150 322 29 556 131 750 328 l84 85 50 -123 c28 -68 58
-149 67 -180 l16 -58 265 0 264 0 0 895 0 895 -790 0 -790 0 0 -285 0 -285
291 0 292 0 -6 -59 c-11 -103 -42 -168 -116 -242 -77 -77 -146 -113 -257 -136
-165 -34 -329 16 -461 140 -139 132 -192 294 -215 670 l-12 197 -565 0 -564 0
6 -157z"/>
<path d="M52331 9198 c7 -13 45 -80 86 -150 l73 -126 0 -746 0 -746 525 0 525
0 0 748 c0 606 3 751 13 767 8 11 44 77 81 148 l67 127 -691 0 -691 0 12 -22z"/>
<path d="M19476 4383 c33 -153 54 -205 113 -283 121 -160 329 -232 552 -190
69 13 171 61 225 105 77 63 142 185 159 298 l7 44 -109 7 c-59 4 -135 9 -169
12 l-61 6 -6 -41 c-13 -96 -75 -161 -154 -161 -102 0 -155 58 -178 193 l-6 37
-190 0 -189 0 6 -27z"/>
<path d="M20750 4165 l0 -245 170 0 170 0 0 245 0 245 -170 0 -170 0 0 -245z"/>
<path d="M21472 4319 c5 -78 11 -100 41 -163 99 -200 327 -294 593 -245 130
24 249 109 306 221 45 87 50 83 -129 96 -95 7 -159 8 -161 2 -9 -26 -51 -76
-72 -87 -32 -16 -118 -16 -149 0 -32 15 -57 60 -65 115 l-6 42 305 0 305 0 0
55 0 55 -486 0 -487 0 5 -91z"/>
<path d="M22717 4383 c-75 -58 -107 -122 -107 -215 1 -107 48 -185 145 -236
46 -24 60 -27 165 -27 133 0 178 15 253 84 l45 41 7 -55 6 -55 168 0 168 0
-13 63 c-8 38 -14 133 -14 245 l0 182 -393 0 -393 0 -37 -27z m483 -103 c0
-103 -34 -154 -114 -167 -41 -6 -92 11 -106 38 -23 42 -2 112 43 142 30 20
113 45 150 46 27 1 27 0 27 -59z"/>
<path d="M23833 4258 c3 -84 11 -171 19 -193 19 -59 85 -120 149 -139 55 -17
209 -21 307 -10 l52 7 0 126 0 127 -57 -9 c-108 -17 -133 13 -133 166 l0 77
-171 0 -172 0 6 -152z"/>
<path d="M24580 4165 l0 -245 175 0 175 0 0 245 0 245 -175 0 -175 0 0 -245z"/>
<path d="M25200 4165 l0 -245 175 0 175 0 0 245 0 245 -175 0 -175 0 0 -245z"/>
<path d="M25730 4165 l0 -245 175 0 175 0 0 245 0 245 -175 0 -175 0 0 -245z"/>
<path d="M26410 4390 c14 -11 33 -22 43 -26 27 -9 21 -17 -39 -48 -119 -63
-150 -198 -64 -281 l29 -28 -45 -29 c-78 -49 -104 -141 -64 -224 25 -51 78
-89 158 -114 184 -57 558 -48 704 18 51 23 110 80 134 131 56 116 10 270 -102
341 -56 35 -127 47 -339 56 -88 3 -170 10 -183 15 -31 12 -38 36 -17 59 16 18
32 20 130 20 174 0 288 30 361 95 l39 34 -385 0 c-384 1 -385 1 -360 -19z
m527 -481 c31 -11 45 -42 34 -72 -16 -41 -56 -50 -215 -45 -128 3 -148 6 -173
24 -21 16 -28 30 -28 55 0 55 24 61 205 53 85 -3 165 -10 177 -15z"/>
<path d="M28040 4164 l0 -245 318 3 c313 3 318 3 388 29 98 36 177 91 240 167
56 68 108 178 120 250 l7 42 -195 0 -194 0 -11 -43 c-16 -57 -73 -130 -120
-152 -25 -12 -62 -19 -108 -19 l-70 -1 -3 108 -3 107 -184 0 -185 0 0 -246z"/>
<path d="M29350 4165 l0 -245 170 0 170 0 0 245 0 245 -170 0 -170 0 0 -245z"/>
<path d="M30070 4352 c0 -211 142 -387 351 -437 131 -30 314 -13 419 40 90 46
174 145 200 236 l8 27 -112 6 c-61 4 -133 9 -161 12 -50 5 -50 5 -67 -33 -10
-21 -31 -46 -47 -56 -36 -21 -121 -23 -160 -2 -31 16 -61 77 -61 125 l0 30
305 0 305 0 0 55 0 55 -490 0 -490 0 0 -58z"/>
<path d="M31304 4368 c-58 -53 -85 -106 -91 -179 -10 -110 45 -207 145 -256
52 -26 67 -28 167 -28 129 0 186 20 251 86 43 44 54 39 54 -28 l0 -43 171 0
c158 0 171 1 165 17 -15 39 -25 166 -26 316 l0 157 -395 0 -395 0 -46 -42z
m503 -93 c-10 -104 -43 -149 -120 -162 -104 -17 -155 88 -77 162 33 31 118 64
169 65 l34 0 -6 -65z"/>
<path d="M32400 4165 l0 -245 170 0 170 0 0 245 0 245 -170 0 -170 0 0 -245z"/>
<path d="M32920 4165 l0 -245 170 0 170 0 0 245 0 245 -170 0 -170 0 0 -245z"/>
<path d="M33430 4165 l0 -245 175 0 175 0 0 245 0 245 -175 0 -175 0 0 -245z"/>
<path d="M35019 4375 c152 -38 185 -56 189 -107 4 -44 -14 -63 -71 -79 -93
-25 -219 12 -262 77 -11 18 -24 39 -30 47 -9 14 -29 12 -175 -15 -91 -16 -166
-31 -168 -33 -7 -7 40 -113 72 -160 90 -136 249 -205 471 -205 124 0 218 20
312 64 81 39 159 109 192 174 28 54 46 165 37 225 l-7 47 -347 -1 -347 -1 134
-33z"/>
<path d="M35753 4338 c15 -171 108 -317 249 -389 92 -47 265 -62 386 -34 208
49 343 213 354 430 l3 60 -186 3 -186 2 -6 -94 c-8 -112 -28 -171 -68 -191
-36 -19 -63 -19 -99 0 -48 25 -63 67 -68 183 l-4 102 -191 0 -190 0 6 -72z"/>
<path d="M36960 4165 l0 -245 175 0 175 0 0 245 0 245 -175 0 -175 0 0 -245z"/>
<path d="M37570 4253 c1 -171 8 -208 54 -268 48 -62 96 -80 216 -80 96 0 110
2 158 28 34 18 65 44 85 73 l32 46 3 -66 3 -66 164 0 165 0 0 245 0 245 -175
0 -175 0 0 -80 c0 -96 -17 -143 -59 -164 -42 -22 -68 -20 -96 9 -23 23 -25 31
-25 130 l0 105 -175 0 -175 0 0 -157z"/>
<path d="M38762 4253 c3 -132 7 -165 24 -203 27 -59 81 -105 146 -125 54 -16
215 -20 302 -9 l46 7 0 122 0 123 -71 -2 c-99 -2 -109 12 -109 145 l0 99 -171
0 -171 0 4 -157z"/>
<path d="M39510 4165 l0 -245 175 0 175 0 0 245 0 245 -175 0 -175 0 0 -245z"/>
<path d="M40073 4338 c14 -169 108 -317 249 -389 92 -47 265 -62 386 -34 208
49 343 213 354 430 l3 60 -186 3 -186 2 -6 -87 c-10 -142 -33 -194 -92 -209
-58 -14 -115 25 -134 92 -6 22 -11 76 -11 122 l0 82 -191 0 -192 0 6 -72z"/>
<path d="M41280 4165 l0 -245 175 0 175 0 0 245 0 245 -175 0 -175 0 0 -245z"/>
<path d="M41810 4165 l0 -245 175 0 175 0 0 245 0 245 -175 0 -175 0 0 -245z"/>
<path d="M42437 4379 c39 -68 134 -107 348 -144 113 -20 143 -28 157 -46 13
-15 15 -26 8 -39 -12 -23 -32 -30 -105 -37 -102 -9 -197 29 -217 88 -5 14
-278 -22 -278 -36 0 -30 57 -120 101 -159 80 -72 192 -106 351 -106 288 0 461
120 461 320 -1 72 -12 109 -49 157 l-25 33 -385 0 -385 0 18 -31z"/>
</g>
</svg>
